<svg xmlns="http://www.w3.org/2000/svg" width="24" height="24" viewBox="0 0 24 24">
    <path fill="#FFF" fill-rule="nonzero" d="M23.813.14A.494.494 0 0 0 23.46 0c-2.553 0-4.661.347-6.324 1.042-1.663.694-3.414 1.956-5.253 3.785A49.3 49.3 0 0 0 9.302 7.69l-5.561.293a.537.537 0 0 0-.381.235L.073 13.85c-.118.196-.093.387.073.573l.94.939c.087.088.2.132.337.132a.443.443 0 0 0 .132-.015l4.05-1.247 4.122 4.123-1.247 4.05a.467.467 0 0 0 .118.469l.939.939c.107.088.22.132.337.132.088 0 .167-.02.235-.059l5.635-3.287a.535.535 0 0 0 .234-.38l.294-5.562a49.18 49.18 0 0 0 2.861-2.582c1.742-1.752 2.981-3.514 3.72-5.29.738-1.775 1.107-3.88 1.107-6.316a.44.44 0 0 0-.147-.33zm-3.55 5.553c-.274.274-.607.411-.998.411s-.724-.137-.998-.41a1.36 1.36 0 0 1-.41-.999c0-.39.136-.723.41-.997.274-.274.607-.411.998-.411s.724.137.998.41c.273.275.41.607.41.998 0 .392-.136.724-.41.998z"/>
</svg>
