<svg xmlns="http://www.w3.org/2000/svg" width="27" height="24" viewBox="0 0 27 24">
    <path fill="#FFF" fill-rule="evenodd" d="M6.589 1.115l5.594 10.917L5.594 22.23 0 11.313 6.589 1.115zm6.964 11.802l12.723.637-6.717 10.397-12.724-.638 6.718-10.396zM20.724.693l5.759 11.24-12.848-.644L7.875.049l12.85.644zM3.286 11.986a.951.951 0 1 1-.001-1.902.951.951 0 0 1 0 1.902zm2.304 4.541a.951.951 0 1 1 0-1.902.951.951 0 0 1 0 1.902zm.314-8.548a.951.951 0 1 1 0-1.902.951.951 0 0 1 0 1.902zm2.532 4.74a.951.951 0 1 1 0-1.901.951.951 0 0 1 0 1.901zm4.426 8.92a.951.951 0 1 1 0-1.903.951.951 0 0 1 0 1.902zm7.623-4.16a.951.951 0 1 1 0-1.903.951.951 0 0 1 0 1.903zM17.677 7.01a.951.951 0 1 1 0-1.903.951.951 0 0 1 0 1.903z"/>
</svg>
